<?xml version="1.0" standalone="no"?>
<!DOCTYPE svg PUBLIC "-//W3C//DTD SVG 20010904//EN"
 "http://www.w3.org/TR/2001/REC-SVG-20010904/DTD/svg10.dtd">
<svg version="1.0" xmlns="http://www.w3.org/2000/svg"
 width="740.000000pt" height="740.000000pt" viewBox="0 0 740.000000 740.000000"
 preserveAspectRatio="xMidYMid meet">

<g transform="translate(0.000000,740.000000) scale(0.100000,-0.100000)"
fill="#000000" stroke="none">
<path d="M0 3700 l0 -3700 3700 0 3700 0 0 3700 0 3700 -3700 0 -3700 0 0
-3700z m3885 2161 l30 -9 -33 -1 c-18 -1 -31 -4 -29 -8 3 -5 -64 -8 -149 -8
-85 0 -154 3 -154 7 0 4 -15 8 -32 10 -29 3 -26 5 21 13 67 12 304 9 346 -4z
m-434 -20 l24 -19 -28 5 c-15 3 -34 0 -42 -7 -18 -15 -19 -7 -3 20 16 25 20
25 49 1z m549 10 c0 -5 3 -16 6 -25 5 -12 1 -14 -23 -7 -15 4 -34 6 -40 4 -19
-7 -16 14 3 21 9 3 21 3 26 -1 7 -3 8 -1 4 5 -4 7 -1 12 8 12 9 0 16 -4 16 -9z
m-645 -31 c-3 -5 -14 -10 -23 -10 -14 0 -14 -2 -3 -9 21 -14 -25 -34 -61 -27
-23 4 -35 0 -54 -19 -34 -34 -31 -48 9 -41 32 6 32 6 4 -5 -34 -13 -28 -23 35
-55 27 -14 48 -27 46 -30 -3 -2 -30 10 -62 27 -31 17 -59 30 -61 28 -2 -2 -1
-35 2 -72 5 -57 8 -67 22 -62 36 14 -18 -28 -61 -46 l-43 -20 30 25 c29 25 29
26 9 32 -12 3 -44 16 -70 29 -27 13 -50 20 -52 16 -1 -4 6 -29 17 -54 18 -42
29 -52 54 -48 14 2 -18 -38 -33 -41 -8 -2 -31 2 -50 9 -61 21 -78 17 -95 -23
-8 -20 -12 -41 -8 -48 4 -7 1 -6 -9 2 -12 10 -23 9 -58 -3 -70 -25 -75 -20
-35 35 21 28 35 53 33 55 -2 3 -32 -27 -67 -65 l-62 -70 78 -1 c63 0 73 -2 53
-10 -14 -6 -46 -8 -71 -5 -26 2 -49 2 -52 -1 -7 -7 74 -163 85 -163 4 0 8 -7
8 -16 0 -11 -6 -13 -19 -9 -10 3 -39 10 -62 15 -44 9 -44 9 9 4 30 -3 52 -1
49 3 -42 76 -91 153 -97 153 -11 0 -102 -130 -92 -131 4 -1 22 -3 41 -5 49 -6
54 -16 6 -14 -56 3 -57 2 -45 -21 13 -24 40 -109 34 -109 -6 0 -41 74 -48 102
-3 16 -10 27 -14 27 -18 -3 -22 2 -13 19 5 10 6 24 2 31 -6 9 -10 6 -14 -11
-4 -14 -20 -42 -36 -62 -17 -21 -33 -46 -36 -56 -4 -11 -12 -17 -20 -14 -19 8
-7 37 50 126 25 38 45 75 44 81 -3 25 2 37 14 37 8 0 22 9 32 20 10 11 26 20
35 20 10 0 21 7 24 16 3 9 13 14 21 11 10 -5 15 5 18 36 4 42 4 42 5 -8 l2
-49 41 39 c22 22 54 58 69 81 26 37 60 55 60 31 0 -10 30 -6 64 8 15 7 18 5
13 -8 -5 -13 3 -17 39 -23 25 -3 47 -4 49 -2 7 7 -25 97 -37 104 -5 4 -30 -8
-55 -25 -25 -18 -47 -30 -50 -28 -2 3 16 20 42 38 32 23 42 35 33 41 -9 5 -6
8 10 8 12 0 22 4 22 10 0 5 7 7 15 4 8 -4 13 -10 10 -14 -3 -5 28 -21 67 -37
40 -15 76 -30 81 -31 7 -3 -1 127 -8 136 -2 2 -26 -8 -54 -22 -28 -15 -51 -24
-51 -21 0 2 13 11 29 20 46 23 84 62 106 108 15 30 26 41 40 40 11 -1 38 4 60
12 48 17 68 19 60 5z m750 -5 c25 -9 50 -13 56 -9 6 3 18 -1 27 -9 42 -37 113
-68 142 -62 23 5 30 2 35 -14 3 -12 26 -33 51 -47 47 -28 56 -40 24 -31 -17 4
-18 2 -9 -14 7 -14 22 -19 52 -20 25 -1 32 -3 17 -6 -75 -11 -74 -11 -28 -46
60 -46 69 -51 77 -41 3 5 16 -1 28 -13 12 -13 18 -23 12 -23 -16 0 43 -70 73
-86 36 -19 36 -19 40 19 l3 32 18 -37 c10 -21 21 -37 25 -36 4 1 23 -13 43
-32 20 -19 44 -41 53 -48 9 -7 16 -22 16 -34 0 -21 37 -92 72 -137 10 -13 18
-31 18 -41 0 -29 42 -123 67 -151 13 -14 21 -28 17 -32 -11 -11 29 -157 43
-157 20 0 25 -23 13 -54 -7 -20 -6 -44 5 -92 8 -36 15 -83 15 -104 0 -29 5
-42 20 -50 19 -10 18 -40 -2 -40 -5 0 -6 5 -3 11 4 6 -2 19 -14 30 -22 21 -36
25 -25 7 4 -7 3 -8 -4 -4 -7 4 -12 15 -12 25 0 10 -7 25 -16 32 -15 12 -16 7
-9 -56 3 -39 10 -85 13 -104 l7 -33 24 42 c29 52 39 46 12 -9 -23 -44 -26 -55
-12 -46 6 3 13 -15 17 -40 3 -25 15 -56 25 -69 16 -20 16 -26 5 -41 -9 -13
-12 -41 -10 -84 l3 -66 -13 55 c-12 50 -14 52 -15 20 -1 -27 -4 -31 -11 -20
-8 12 -10 12 -10 -5 0 -21 23 -60 53 -89 20 -21 22 -46 3 -46 -19 0 -86 -89
-86 -114 0 -12 11 -45 25 -75 14 -30 23 -56 21 -59 -3 -2 -17 22 -32 54 -22
50 -27 56 -34 39 -8 -18 -9 -17 -9 7 -1 15 -8 31 -17 36 -21 12 -20 24 4 33
15 6 20 21 25 76 10 105 9 129 -5 115 -18 -18 -33 -15 -17 4 10 13 10 17 -1
24 -10 6 -7 9 11 12 19 2 25 10 27 37 4 36 -23 121 -38 121 -5 0 -6 15 -3 34
4 28 2 35 -16 41 -11 3 -21 11 -21 16 0 6 7 6 19 0 17 -10 19 -4 25 84 4 52 4
99 1 105 -4 6 -25 -3 -51 -21 -63 -43 -65 -31 -3 15 l51 38 -34 22 c-18 13
-52 33 -75 46 -24 13 -41 26 -38 28 2 3 36 -14 75 -38 40 -23 74 -40 76 -37 3
2 0 24 -5 48 -6 24 -10 55 -10 69 0 14 6 1 13 -28 14 -55 33 -88 22 -37 -3 17
-9 54 -12 83 -7 57 -24 80 -25 35 l-1 -28 -10 28 c-7 21 -14 26 -27 21 -48
-20 -95 -34 -104 -31 -6 2 15 14 46 27 31 13 57 27 57 30 0 4 -21 15 -47 25
-50 19 -51 20 -98 60 l-30 26 38 -15 c20 -8 62 -31 92 -51 30 -20 59 -33 66
-30 7 5 9 23 4 53 -6 41 -5 45 9 33 14 -11 13 -7 -3 29 -22 49 -51 83 -51 60
0 -8 9 -42 20 -74 11 -33 20 -69 20 -80 -1 -23 -17 20 -45 117 -9 31 -21 57
-26 57 -6 0 -7 -4 -4 -10 3 -6 -1 -7 -9 -4 -19 7 -21 -9 -5 -39 9 -16 9 -22 0
-25 -6 -2 -8 -9 -4 -15 4 -7 -1 -6 -10 2 -9 7 -15 17 -12 21 2 4 -3 14 -13 23
-15 13 -22 13 -64 0 -26 -9 -45 -19 -43 -23 3 -4 -2 -11 -10 -14 -18 -7 -33
23 -17 33 5 3 17 22 26 41 16 34 16 29 2 -17 -9 -29 8 -30 49 -3 17 11 25 20
19 20 -6 0 -16 12 -22 26 -7 15 -17 22 -24 18 -8 -5 -9 1 -3 22 15 57 3 118
-23 110 -9 -3 -43 -8 -74 -12 -32 -3 -58 -11 -58 -18 0 -6 -7 -3 -15 7 -12 16
-11 21 5 37 19 19 64 100 58 104 -46 30 -68 40 -91 45 -15 3 -27 10 -27 15 1
5 -2 12 -8 15 -5 3 -14 15 -20 26 -6 11 -12 14 -12 8 0 -7 -5 -13 -10 -13 -7
0 -7 7 0 20 8 15 8 21 -2 24 -7 2 -35 11 -63 20 -57 18 -69 20 -61 7 4 -5 -5
-4 -19 2 -14 7 -25 15 -25 19 0 10 -84 58 -101 58 -8 0 -20 9 -27 20 -10 17
-10 20 3 20 23 0 20 72 -5 95 -18 17 -21 16 -55 -5 -20 -12 -38 -20 -41 -17
-3 2 21 19 53 37 l58 33 -39 14 c-73 25 -50 30 29 6 18 -5 18 -4 4 17 -13 20
-37 29 -89 32 -8 1 -28 10 -45 20 -25 15 -27 18 -10 18 18 1 17 2 -5 15 -35
20 -4 20 55 0z m-515 -17 c45 -1 48 -2 15 -5 -74 -6 -85 -11 -86 -41 l-1 -27
-7 25 c-8 29 -9 29 -78 11 -56 -14 -64 -23 -35 -40 9 -6 13 -10 7 -11 -5 0
-17 5 -25 10 -12 8 -16 2 -21 -28 l-6 -37 -2 42 c0 23 -6 43 -13 45 -6 2 0 15
16 31 29 29 47 37 26 12 -7 -9 -11 -18 -8 -20 6 -6 100 25 113 37 6 5 19 7 30
4 11 -3 45 -7 75 -8z m360 -8 c47 -24 75 -26 66 -5 -8 21 -1 19 29 -11 14 -14
22 -30 18 -37 -4 -6 -10 -27 -14 -47 l-7 -35 -1 38 c-1 34 -3 37 -20 27 -30
-16 -36 -12 -16 10 16 17 16 20 2 20 -8 0 -23 3 -33 7 -13 5 -15 3 -9 -7 4 -7
-6 -3 -23 10 -34 25 -52 20 -52 -16 0 -13 -5 -24 -11 -24 -6 0 -8 9 -4 20 11
34 -12 50 -74 52 l-56 1 65 7 c36 4 73 7 83 8 10 1 35 -7 57 -18z m-224 -8 c0
-13 -8 -18 -27 -18 -20 0 -25 4 -21 18 2 10 13 18 26 18 14 0 22 -6 22 -18z
m-618 -57 c17 -4 32 -11 32 -16 0 -5 -11 -7 -25 -3 -40 10 -71 -3 -85 -35 -10
-24 -15 -28 -25 -18 -11 10 -10 16 4 32 10 11 21 28 24 38 4 12 13 17 24 13
10 -2 33 -7 51 -11z m442 -110 c0 -8 -7 -15 -15 -15 -8 0 -15 7 -15 15 0 8 7
15 15 15 8 0 15 -7 15 -15z m330 0 c0 -8 -6 -15 -14 -15 -17 0 -28 14 -19 24
12 12 33 6 33 -9z m-1025 -15 c-3 -5 -11 -10 -16 -10 -6 0 -7 5 -4 10 3 6 11
10 16 10 6 0 7 -4 4 -10z m73 3 c-10 -2 -26 -2 -35 0 -10 3 -2 5 17 5 19 0 27
-2 18 -5z m447 -2 c7 -12 -12 -24 -25 -16 -11 7 -4 25 10 25 5 0 11 -4 15 -9z
m683 -3 c-6 -18 -28 -21 -28 -4 0 9 7 16 16 16 9 0 14 -5 12 -12z m508 -21 c1
-15 -1 -29 -6 -32 -4 -3 -10 11 -12 30 -2 20 0 34 5 32 6 -2 11 -15 13 -30z
m55 -54 c13 -16 12 -17 -3 -4 -10 7 -18 15 -18 17 0 8 8 3 21 -13z m-1917 -58
c-4 -8 -8 -15 -10 -15 -2 0 -4 7 -4 15 0 8 4 15 10 15 5 0 7 -7 4 -15z m43 9
c-3 -3 -12 -4 -19 -1 -8 3 -5 6 6 6 11 1 17 -2 13 -5z m1920 0 c-3 -3 -12 -4
-19 -1 -8 3 -5 6 6 6 11 1 17 -2 13 -5z m44 -7 c-1 -12 -15 -9 -19 4 -3 6 1
10 8 8 6 -3 11 -8 11 -12z m-1331 -57 c0 -5 -4 -10 -10 -10 -5 0 -10 5 -10 10
0 6 5 10 10 10 6 0 10 -4 10 -10z m660 0 c0 -5 -4 -10 -10 -10 -5 0 -10 5 -10
10 0 6 5 10 10 10 6 0 10 -4 10 -10z m-330 -30 c0 -5 -4 -10 -10 -10 -5 0 -10
5 -10 10 0 6 5 10 10 10 6 0 10 -4 10 -10z m760 -35 c10 6 11 5 15 -32 2 -18
-1 -20 -19 -14 -12 5 -19 11 -16 14 3 3 -6 18 -20 33 l-25 28 28 -17 c15 -10
32 -15 37 -12z m-1513 -19 c-2 -12 -18 -26 -29 -26 -5 0 -8 11 -8 24 0 19 4
23 20 19 10 -3 18 -10 17 -17z m248 -96 c3 -5 -1 -10 -10 -10 -9 0 -13 5 -10
10 3 6 8 10 10 10 2 0 7 -4 10 -10z m1015 0 c0 -5 -7 -10 -16 -10 -8 0 -12 5
-9 10 3 6 10 10 16 10 5 0 9 -4 9 -10z m-720 -130 c0 -5 -4 -10 -10 -10 -5 0
-10 5 -10 10 0 6 5 10 10 10 6 0 10 -4 10 -10z m420 0 c0 -5 -4 -10 -10 -10
-5 0 -10 5 -10 10 0 6 5 10 10 10 6 0 10 -4 10 -10z m-1479 -77 c-12 -20 -14
-14 -5 12 4 9 9 14 11 11 3 -2 0 -13 -6 -23z m549 7 c0 -5 -5 -10 -11 -10 -5
0 -7 5 -4 10 3 6 8 10 11 10 2 0 4 -4 4 -10z m1440 1 c0 -6 -4 -13 -10 -16 -5
-3 -10 1 -10 9 0 9 5 16 10 16 6 0 10 -4 10 -9z m-1940 -26 c0 -8 6 -15 13
-15 19 -1 101 -40 94 -46 -3 -3 -28 4 -55 16 -28 12 -55 19 -61 16 -13 -9 -22
9 -15 28 8 20 24 21 24 1z m-76 -66 c-14 -16 -19 -35 -18 -78 0 -31 -1 -47 -4
-36 -5 27 -22 44 -22 23 0 -9 -5 -20 -12 -24 -8 -5 -9 -2 -3 12 5 10 9 31 10
47 1 15 12 38 25 52 28 30 51 34 24 4z m40 -43 c-3 -15 -8 -25 -11 -23 -2 3
-1 17 3 31 3 15 8 25 11 23 2 -3 1 -17 -3 -31z m236 13 c0 -5 -7 -9 -15 -9
-15 0 -20 12 -9 23 8 8 24 -1 24 -14z m580 1 c0 -5 -4 -10 -10 -10 -5 0 -10 5
-10 10 0 6 5 10 10 10 6 0 10 -4 10 -10z m880 0 c0 -5 -4 -10 -10 -10 -5 0
-10 5 -10 10 0 6 5 10 10 10 6 0 10 -4 10 -10z m-1570 -54 c0 -3 -26 -18 -57
-36 -62 -33 -59 -22 4 16 38 22 53 28 53 20z m-200 -58 c0 -6 -8 -20 -17 -31
-17 -20 -17 -20 0 -14 10 4 23 7 28 7 5 0 9 7 9 15 0 8 3 15 8 15 12 0 34 -17
34 -25 0 -13 -26 -25 -43 -20 -9 3 -28 -6 -42 -19 -15 -14 -27 -20 -27 -15 0
6 -5 7 -10 4 -6 -4 -7 -12 -4 -18 5 -9 4 -9 -6 0 -13 12 -7 45 7 41 4 -2 9 0
10 5 1 4 10 21 20 37 18 31 33 39 33 18z m565 2 c3 -5 -1 -10 -10 -10 -9 0
-13 5 -10 10 3 6 8 10 10 10 2 0 7 -4 10 -10z m635 0 c0 -5 -5 -10 -11 -10 -5
0 -7 5 -4 10 3 6 8 10 11 10 2 0 4 -4 4 -10z m260 -11 c0 -5 -4 -9 -10 -9 -5
0 -10 7 -10 16 0 8 5 12 10 9 6 -3 10 -10 10 -16z m631 8 c-1 -12 -15 -9 -19
4 -3 6 1 10 8 8 6 -3 11 -8 11 -12z m-1981 -57 c13 -9 13 -10 0 -10 -8 0 -22
5 -30 10 -13 9 -13 10 0 10 8 0 22 -5 30 -10z m2454 -25 c-4 -8 -11 -12 -16
-9 -6 4 -5 10 3 15 19 12 19 11 13 -6z m-2304 -35 c0 -5 -4 -10 -10 -10 -5 0
-10 5 -10 10 0 6 5 10 10 10 6 0 10 -4 10 -10z m2150 0 c0 -5 -7 -10 -15 -10
-8 0 -15 5 -15 10 0 6 7 10 15 10 8 0 15 -4 15 -10z m-2444 -55 c12 -38 20
-51 27 -43 6 9 7 8 3 -5 -3 -10 0 -20 8 -23 15 -6 17 -36 3 -46 -17 -11 -38 3
-32 22 3 9 -4 37 -15 61 -18 40 -27 89 -16 89 3 0 13 -25 22 -55z m874 -15 c0
-5 -4 -10 -10 -10 -5 0 -10 5 -10 10 0 6 5 10 10 10 6 0 10 -4 10 -10z m980 0
c0 -5 -4 -10 -10 -10 -5 0 -10 5 -10 10 0 6 5 10 10 10 6 0 10 -4 10 -10z
m-1867 -80 c-3 -12 -8 -19 -11 -16 -5 6 5 36 12 36 2 0 2 -9 -1 -20z m1377 10
c0 -5 -4 -10 -10 -10 -5 0 -10 5 -10 10 0 6 5 10 10 10 6 0 10 -4 10 -10z
m850 -35 c0 -8 -4 -15 -10 -15 -5 0 -10 7 -10 15 0 8 5 15 10 15 6 0 10 -7 10
-15z m-1700 -5 c0 -5 -4 -10 -10 -10 -5 0 -10 5 -10 10 0 6 5 10 10 10 6 0 10
-4 10 -10z m580 0 c0 -5 -4 -10 -10 -10 -5 0 -10 5 -10 10 0 6 5 10 10 10 6 0
10 -4 10 -10z m540 0 c0 -5 -4 -10 -10 -10 -5 0 -10 5 -10 10 0 6 5 10 10 10
6 0 10 -4 10 -10z m-1677 -42 c-17 -18 -33 -40 -36 -48 -4 -12 -6 -11 -6 3 -1
10 14 31 31 48 43 39 50 37 11 -3z m61 -69 l-7 -101 24 7 c24 8 24 7 6 -13
-12 -13 -15 -22 -8 -27 17 -10 13 -26 -6 -23 -16 3 -18 -7 -18 -82 0 -81 1
-84 25 -91 19 -5 20 -7 6 -8 -19 -1 -19 -1 0 -22 19 -22 19 -22 -2 -11 -15 8
-24 8 -32 0 -7 -7 -12 -8 -12 -3 0 4 -10 0 -22 -11 l-21 -19 19 29 c14 23 19
53 22 130 l3 101 -30 -32 c-26 -28 -29 -36 -21 -64 5 -17 17 -40 26 -50 10
-11 15 -21 12 -24 -6 -7 -68 71 -68 85 0 7 14 29 30 50 31 39 38 70 26 105 -7
19 -7 19 7 2 17 -20 18 -14 33 116 10 94 16 65 8 -44z m220 -10 c-3 -5 -10 -7
-15 -3 -5 3 -7 10 -3 15 3 5 10 7 15 3 5 -3 7 -10 3 -15z m2256 6 c0 -8 -7
-15 -15 -15 -8 0 -15 7 -15 15 0 8 7 15 15 15 8 0 15 -7 15 -15z m-2540 -30
c0 -5 -5 -3 -10 5 -5 8 -10 20 -10 25 0 6 5 3 10 -5 5 -8 10 -19 10 -25z
m1410 -15 c0 -5 -4 -10 -10 -10 -5 0 -10 5 -10 10 0 6 5 10 10 10 6 0 10 -4
10 -10z m-506 -31 c-3 -5 -10 -7 -15 -3 -5 3 -7 10 -3 15 3 5 10 7 15 3 5 -3
7 -10 3 -15z m1013 -5 c-9 -9 -28 6 -21 18 4 6 10 6 17 -1 6 -6 8 -13 4 -17z
m-1197 -34 c0 -5 -4 -10 -10 -10 -5 0 -10 5 -10 10 0 6 5 10 10 10 6 0 10 -4
10 -10z m1380 0 c0 -5 -4 -10 -10 -10 -5 0 -10 5 -10 10 0 6 5 10 10 10 6 0
10 -4 10 -10z m-980 -30 c0 -5 -4 -10 -10 -10 -5 0 -10 5 -10 10 0 6 5 10 10
10 6 0 10 -4 10 -10z m580 0 c0 -5 -4 -10 -10 -10 -5 0 -10 5 -10 10 0 6 5 10
10 10 6 0 10 -4 10 -10z m-1200 -50 c0 -5 -4 -10 -10 -10 -5 0 -10 5 -10 10 0
6 5 10 10 10 6 0 10 -4 10 -10z m1820 -5 c0 -8 -4 -15 -9 -15 -13 0 -22 16
-14 24 11 11 23 6 23 -9z m-335 -73 c-8 -2 -22 -17 -31 -34 l-16 -31 58 8 c84
10 94 16 59 32 l-30 14 30 -7 c17 -4 37 -8 45 -9 8 -1 36 -11 61 -23 25 -11
73 -28 105 -38 33 -9 82 -27 109 -40 28 -12 82 -33 120 -46 39 -12 72 -26 73
-31 2 -4 22 -17 44 -28 22 -11 37 -23 34 -26 -3 -3 -17 2 -30 11 -14 9 -34 17
-44 19 -11 1 -31 10 -45 20 -50 33 -180 79 -187 66 -6 -8 -9 -8 -14 0 -10 16
-63 13 -91 -5 -22 -15 -26 -15 -40 0 -9 9 -13 16 -9 16 4 0 -7 16 -26 35 -19
19 -39 35 -45 35 -6 0 -26 -16 -45 -35 l-34 -35 50 -2 49 -1 -49 -6 -50 -6 73
-59 c57 -46 75 -56 82 -45 7 11 9 10 9 -3 0 -10 4 -18 9 -18 4 0 6 -11 4 -24
-3 -15 -10 -23 -18 -20 -7 3 -18 -8 -25 -26 -16 -38 -25 -33 -10 5 14 38 5 44
-21 12 -11 -15 -27 -27 -35 -27 -18 0 -18 -10 3 -39 16 -23 17 -23 31 -5 13
16 14 17 9 2 -5 -14 -1 -18 16 -18 18 0 19 -2 7 -10 -13 -9 -13 -11 0 -20 24
-15 48 -12 60 9 14 27 13 31 -7 31 -17 1 -17 1 0 11 9 6 15 13 13 17 -3 4 4 8
14 8 10 0 16 -4 14 -8 -3 -4 0 -8 7 -8 7 0 3 -9 -9 -20 -12 -12 -22 -27 -22
-36 0 -12 7 -11 39 6 22 11 42 24 46 30 10 15 35 12 35 -5 0 -8 -3 -15 -7 -16
-5 0 -18 -2 -30 -3 -12 -1 -37 -15 -57 -29 -26 -20 -45 -27 -78 -26 -35 1 -38
2 -18 8 l25 7 -22 12 c-12 7 -30 9 -40 5 -26 -9 -53 -34 -47 -44 2 -4 -5 -13
-16 -19 -13 -7 -20 -7 -20 0 0 5 -8 10 -17 11 -12 0 -13 2 -5 6 10 4 10 8 1
19 -17 20 -62 17 -89 -6 -30 -26 -31 -26 -62 10 -15 17 -36 30 -49 30 -22 0
-22 1 -6 17 17 17 19 16 43 -15 36 -45 75 -40 134 16 10 10 15 11 18 3 5 -14
79 -15 87 0 8 12 -33 59 -51 59 -7 0 -18 -8 -23 -17 -9 -16 -10 -16 -11 5 0
13 -6 22 -15 22 -9 0 -18 7 -21 15 -4 8 -17 15 -30 15 -27 0 -30 -9 -11 -30 6
-8 3 -7 -9 3 -11 9 -25 17 -31 17 -13 0 -22 20 -16 38 3 6 10 12 17 12 7 0 31
28 55 62 32 46 39 63 29 69 -11 7 -10 9 1 9 10 0 11 3 2 14 -9 11 -7 12 11 9
17 -3 33 6 57 31 37 38 35 41 -19 27 -19 -5 -48 -12 -63 -15 -25 -6 -27 -9
-15 -23 12 -15 11 -15 -12 -3 -18 10 -25 10 -28 1 -3 -8 -8 -6 -16 5 -9 11
-28 17 -56 18 -43 1 -44 0 -56 -39 -7 -27 -8 -42 -1 -47 6 -4 5 -12 -5 -21
-11 -11 -27 -14 -58 -10 -49 7 -60 -3 -60 -61 0 -30 3 -36 13 -28 10 8 13 6
13 -9 0 -10 -4 -19 -8 -19 -4 0 -19 -19 -33 -42 -15 -24 -24 -34 -20 -23 20
55 20 56 -14 44 -17 -6 -36 -20 -42 -30 -13 -25 -1 -106 16 -113 20 -7 7 -55
-14 -49 -13 3 -16 13 -14 41 2 34 1 33 -7 -8 -5 -24 -16 -58 -25 -76 -17 -36
-6 -88 21 -98 9 -3 13 -10 9 -16 -3 -5 -1 -19 5 -30 6 -11 7 -20 3 -19 -21 3
-33 -2 -33 -15 0 -8 -3 -17 -7 -19 -5 -3 -8 22 -8 56 1 38 -6 73 -16 94 -16
32 -16 35 1 51 23 21 44 140 35 194 -6 33 -4 38 12 38 23 0 88 105 85 137 -2
21 2 23 49 23 62 0 88 22 96 78 l5 40 67 -2 66 -1 19 41 c17 37 22 41 38 30
16 -9 16 -12 3 -14z m-1131 3 c11 -8 15 -15 8 -15 -17 0 7 -48 27 -54 9 -3 34
-1 56 4 54 13 65 12 65 -2 0 -9 -17 -13 -51 -13 -39 0 -54 -5 -65 -19 -8 -12
-14 -15 -14 -7 0 8 -8 11 -20 8 -10 -3 -18 0 -17 5 2 9 -88 35 -127 37 -6 1 6
-15 25 -35 24 -25 40 -34 57 -31 18 3 20 2 11 -9 -9 -11 -8 -14 2 -14 11 0 12
-2 1 -9 -10 -6 -3 -23 29 -69 33 -48 45 -59 56 -51 10 9 13 7 13 -10 0 -11 6
-21 13 -22 10 0 10 -2 0 -6 -7 -2 -13 -11 -13 -19 0 -9 -5 -12 -11 -8 -7 4
-26 -10 -46 -32 l-34 -39 25 40 c27 41 19 60 -12 33 -9 -8 -25 -18 -34 -21
-10 -4 -18 -14 -18 -24 0 -15 -1 -15 -13 1 -16 22 -46 15 -65 -14 -18 -29 -7
-40 39 -40 29 0 39 4 39 16 0 14 1 14 16 0 8 -9 20 -16 25 -16 6 0 8 -4 5 -9
-6 -10 37 -31 64 -31 10 0 30 15 44 32 24 31 26 32 43 15 16 -16 16 -17 -1
-17 -9 0 -27 -5 -38 -11 -17 -9 -18 -13 -7 -20 11 -7 10 -9 -3 -9 -10 0 -18
-4 -18 -10 0 -16 -25 -11 -50 10 -27 24 -72 26 -90 5 -7 -8 -9 -15 -6 -15 4 0
1 -6 -6 -14 -15 -16 -48 -3 -48 19 0 8 -11 22 -25 31 -22 14 -30 15 -53 4 -25
-12 -26 -13 -7 -21 15 -6 10 -8 -21 -8 -29 -1 -46 5 -59 19 -17 18 -17 20 -2
14 10 -4 17 -1 17 6 0 10 3 10 15 0 20 -17 69 -4 61 15 -5 13 11 20 36 16 4 0
15 11 24 25 16 24 16 26 -11 54 -29 30 -55 39 -55 19 0 -8 -5 -8 -15 1 -8 7
-15 9 -16 4 0 -5 -4 0 -8 11 -9 21 7 45 25 38 6 -2 41 22 78 53 48 41 63 60
54 65 -10 7 -10 9 1 9 9 0 2 13 -19 35 -19 19 -40 35 -47 35 -15 0 -69 -58
-66 -71 5 -16 -33 -18 -72 -5 -34 12 -43 13 -62 1 -17 -12 -22 -12 -26 -1 -3
8 0 19 6 25 14 14 54 14 59 0 2 -5 19 -11 38 -11 29 -1 41 6 75 45 41 47 61
55 93 38 9 -5 43 -12 75 -16 l59 -8 -16 32 c-9 17 -21 31 -27 31 -6 0 -7 5 -4
10 8 13 16 12 39 -5z m558 -17 c-9 -9 -15 -9 -24 0 -9 9 -7 12 12 12 19 0 21
-3 12 -12z m-1142 -18 c0 -5 -4 -10 -10 -10 -5 0 -10 5 -10 10 0 6 5 10 10 10
6 0 10 -4 10 -10z m2288 -1 c-2 -6 -8 -10 -13 -10 -5 0 -11 4 -13 10 -2 6 4
11 13 11 9 0 15 -5 13 -11z m-1528 -119 c4 -9 24 -16 51 -17 24 -1 52 -2 62
-2 9 -1 17 -7 17 -15 0 -18 81 -146 92 -146 4 0 8 -13 8 -29 0 -16 8 -71 19
-123 26 -133 15 -305 -27 -436 -16 -51 -28 -101 -25 -112 4 -15 0 -20 -15 -20
-25 0 -95 -58 -86 -71 5 -8 -10 -13 -30 -10 -15 3 -47 -32 -42 -46 7 -17 -2
-17 -20 1 -16 16 -19 41 -5 31 5 -3 12 -1 16 5 4 6 10 8 15 5 4 -3 19 7 32 22
13 16 31 29 39 31 7 2 24 13 36 24 22 20 22 23 6 40 -19 21 -43 24 -44 6 0 -7
-5 -2 -10 11 -7 18 -5 26 8 37 25 19 32 17 26 -5 -3 -13 2 -23 16 -31 30 -16
41 -5 42 43 1 36 2 38 9 17 7 -21 8 -22 9 -5 1 11 8 37 15 58 9 24 10 37 3 37
-6 0 -1 10 10 23 15 16 18 29 12 47 -4 14 -7 32 -8 40 -1 13 0 13 9 0 8 -12
10 -11 10 7 0 27 -16 38 -24 17 -9 -23 -25 -7 -22 21 3 32 14 42 22 21 3 -9
10 -13 15 -10 10 6 5 79 -16 224 l-8 55 -12 -35 c-7 -21 -9 -44 -4 -57 5 -13
7 -23 5 -23 -3 0 -11 -3 -19 -6 -10 -3 -16 3 -19 21 -4 17 -1 28 8 32 21 8 29
89 11 117 -16 24 -68 41 -77 25 -3 -5 -14 0 -23 11 -15 18 -15 21 -2 26 16 6
21 69 7 90 -9 14 -86 29 -78 16 3 -6 -1 -12 -9 -16 -9 -3 -15 0 -15 8 0 8 -6
17 -12 20 -10 5 -10 7 -1 12 8 4 9 13 2 30 -12 34 -10 56 3 24 5 -14 13 -32
18 -40z m-973 -27 c-3 -10 -5 -2 -5 17 0 19 2 27 5 18 2 -10 2 -26 0 -35z
m-76 18 c-8 -15 -6 -25 11 -47 l22 -29 -30 25 c-16 14 -31 26 -33 27 -4 3 29
43 36 43 2 0 -1 -9 -6 -19z m964 -15 c13 -5 16 -10 7 -13 -6 -3 -10 -8 -8 -12
3 -4 -4 -7 -15 -7 -10 0 -19 6 -19 13 0 7 -6 13 -12 14 -10 0 -10 2 -1 5 7 3
10 13 7 22 -5 15 -4 15 8 1 7 -8 22 -19 33 -23z m951 19 c-3 -8 0 -15 7 -16 9
0 9 -2 0 -6 -7 -2 -13 -10 -13 -17 0 -19 -36 -14 -37 6 -1 10 4 18 12 18 7 0
15 7 19 15 3 8 8 15 12 15 3 0 4 -7 0 -15z m-2029 -30 c0 -8 -4 -15 -8 -15
-11 0 -20 16 -12 24 11 11 20 7 20 -9z m3112 -16 l24 -30 -34 -29 c-41 -34
-54 -30 -16 5 29 27 27 55 -4 55 -10 0 -19 7 -19 15 0 24 23 16 49 -16z
m-2684 9 c-7 -18 -51 -37 -65 -28 -15 9 6 26 40 33 14 2 26 5 27 6 1 0 0 -5
-2 -11z m165 -16 c0 -13 -12 -22 -22 -16 -10 6 -1 24 13 24 5 0 9 -4 9 -8z
m1908 -4 c-6 -18 -28 -21 -28 -4 0 9 7 16 16 16 9 0 14 -5 12 -12z m-2524 -47
l21 -24 -32 23 c-34 25 -38 32 -26 44 4 4 9 1 12 -6 2 -7 13 -24 25 -37z m250
-23 c18 3 19 2 3 -22 -9 -14 -17 -33 -18 -43 0 -17 -1 -17 -8 0 -5 15 -12 9
-31 -33 -13 -28 -28 -54 -33 -57 -4 -3 3 18 17 46 32 62 33 97 4 130 l-23 26
28 -24 27 -24 1 34 2 34 6 -35 c5 -27 10 -34 25 -32z m1316 47 c0 -8 -4 -15
-10 -15 -5 0 -10 7 -10 15 0 8 5 15 10 15 6 0 10 -7 10 -15z m-364 -51 c12
-10 12 -12 1 -17 -24 -9 -40 8 -32 34 6 17 9 20 13 9 2 -8 11 -20 18 -26z
m744 0 c0 -8 -9 -14 -20 -14 -17 0 -19 3 -8 19 13 21 28 19 28 -5z m1098 -47
c-7 -14 -13 -17 -16 -9 -6 19 6 44 18 37 7 -4 6 -14 -2 -28z m-2958 1 c0 -19
-2 -20 -10 -8 -13 19 -13 30 0 30 6 0 10 -10 10 -22z m338 -9 c-7 -4 -18 -3
-26 3 -10 9 -10 13 0 19 7 4 18 3 26 -3 10 -9 10 -13 0 -19z m2290 8 c2 -10
-3 -17 -12 -17 -10 0 -16 9 -16 21 0 24 23 21 28 -4z m-1990 -49 c7 -9 6 -16
-2 -24 -10 -9 -15 -7 -24 6 -17 27 6 42 26 18z m-85 -26 c16 -18 15 -18 -12
-14 -16 2 -32 10 -35 18 -8 21 28 18 47 -4z m2428 -25 c-8 -8 -11 -7 -11 4 0
20 13 34 18 19 3 -7 -1 -17 -7 -23z m-3011 7 c0 -8 -4 -12 -10 -9 -5 3 -10 10
-10 16 0 5 5 9 10 9 6 0 10 -7 10 -16z m1249 -15 c12 -20 11 -21 -11 -16 -12
4 -27 7 -31 7 -8 0 14 29 23 30 3 0 11 -10 19 -21z m540 7 c9 -11 7 -15 -11
-20 -36 -9 -39 -7 -26 14 15 24 22 25 37 6z m-650 -15 c8 -5 9 -11 3 -15 -14
-8 -43 4 -36 15 7 11 15 11 33 0z m371 -17 c0 -8 -4 -14 -10 -14 -5 0 -10 9
-10 21 0 11 5 17 10 14 6 -3 10 -13 10 -21z m384 17 c7 -11 -22 -23 -36 -15
-6 4 -5 10 3 15 18 11 26 11 33 0z m-1794 -37 c0 -8 -4 -14 -9 -14 -11 0 -22
26 -14 34 9 9 23 -3 23 -20z m2823 1 c-3 -8 -11 -15 -19 -15 -7 0 -18 -9 -24
-20 -6 -11 -15 -20 -21 -20 -6 0 5 18 23 39 31 38 53 46 41 16z m-686 -1 c-3
-3 -12 -4 -19 -1 -8 3 -5 6 6 6 11 1 17 -2 13 -5z m-2091 -51 c-7 -7 -26 7
-26 19 0 6 6 6 15 -2 9 -7 13 -15 11 -17z m1594 -57 c0 -15 -13 -31 -28 -34
-10 -2 -10 2 -2 18 6 11 8 25 5 30 -3 6 1 7 9 4 9 -3 16 -11 16 -18z m1070 9
c-6 -7 -8 -19 -5 -27 4 -9 0 -15 -9 -15 -8 0 -18 7 -21 15 -7 18 9 39 30 39
10 0 12 -4 5 -12z m-2587 -8 c6 -16 -3 -31 -19 -34 -7 -1 -11 9 -10 22 1 27
20 34 29 12z m1068 -15 c8 -20 6 -21 -11 -12 -11 6 -20 18 -20 26 0 22 22 12
31 -14z m-1241 -13 c0 -11 -4 -17 -10 -14 -5 3 -10 15 -10 26 0 11 5 17 10 14
6 -3 10 -15 10 -26z m1090 16 c0 -8 -4 -15 -9 -15 -13 0 -22 16 -14 24 11 11
23 6 23 -9z m748 4 c-2 -6 -8 -10 -13 -10 -5 0 -11 4 -13 10 -2 6 4 11 13 11
9 0 15 -5 13 -11z m1073 -32 c-8 -8 -11 -5 -11 9 0 27 14 41 18 19 2 -9 -1
-22 -7 -28z m-2561 18 c0 -8 -7 -15 -15 -15 -16 0 -20 12 -8 23 11 12 23 8 23
-8z m2222 0 c0 -5 -5 -11 -11 -13 -6 -2 -11 4 -11 13 0 9 5 15 11 13 6 -2 11
-8 11 -13z m-1992 -4 c0 -12 -20 -25 -27 -18 -7 7 6 27 18 27 5 0 9 -4 9 -9z
m1765 -21 c-6 -9 -9 -9 -16 1 -10 17 0 34 13 21 6 -6 7 -16 3 -22z m-1466 -49
c-3 -6 -10 -7 -18 -2 -7 5 -10 14 -6 21 9 14 29 -2 24 -19z m1170 0 c-3 -6
-10 -7 -18 -2 -7 5 -10 14 -6 21 9 14 29 -2 24 -19z m-585 -6 c4 -10 -1 -15
-14 -15 -13 0 -18 5 -14 15 4 8 10 15 14 15 4 0 10 -7 14 -15z m-1384 -31 c0
-8 -4 -14 -10 -14 -5 0 -10 9 -10 21 0 11 5 17 10 14 6 -3 10 -13 10 -21z
m2763 6 c-3 -11 -9 -20 -14 -20 -5 0 -9 9 -9 20 0 11 6 20 14 20 9 0 12 -7 9
-20z m-1616 -72 c-3 -8 -6 -5 -6 6 -1 11 2 17 5 13 3 -3 4 -12 1 -19z m450 0
c-3 -8 -6 -5 -6 6 -1 11 2 17 5 13 3 -3 4 -12 1 -19z m1064 -11 c-12 -13 -20
-30 -18 -38 2 -8 2 -11 0 -6 -3 4 -11 7 -19 7 -20 0 -8 23 24 42 37 22 39 22
13 -5z m-2536 -24 c2 -7 -2 -13 -9 -13 -8 0 -16 -3 -19 -7 -2 -5 -2 -2 0 6 2
8 -4 22 -13 32 -16 17 -15 18 10 6 14 -7 28 -18 31 -24z m1437 -108 c2 -35 7
-67 10 -70 13 -13 50 16 45 36 -6 22 1 24 26 5 13 -11 15 -19 8 -37 -5 -13
-10 -18 -10 -11 -1 21 -29 13 -50 -14 -29 -36 -52 -26 -44 20 7 46 -13 128
-43 172 -33 48 -30 48 15 3 35 -36 39 -44 43 -104z m-622 96 c0 -5 -7 -11 -15
-15 -9 -3 -15 0 -15 9 0 8 7 15 15 15 8 0 15 -4 15 -9z m891 -6 c-1 -15 -24
-12 -29 3 -3 9 2 13 12 10 10 -1 17 -7 17 -13z m-1868 -44 c-9 -12 -25 20 -18
36 7 16 9 15 15 -7 4 -14 5 -27 3 -29z m2835 27 c-2 -12 -8 -23 -14 -25 -7 -2
-10 6 -7 22 6 30 26 34 21 3z m-1605 -18 c-3 -11 -9 -20 -13 -20 -5 0 -6 9 -3
20 3 11 9 20 13 20 5 0 6 -9 3 -20z m-1132 -67 c-8 -14 -3 -25 22 -50 17 -18
26 -33 21 -33 -6 0 -19 9 -29 20 -11 12 -26 18 -35 15 -14 -4 -16 -1 -12 20 2
14 8 25 12 25 5 0 12 10 16 23 4 12 9 17 11 10 3 -7 0 -20 -6 -30z m1317 20
c-2 -10 -7 -18 -12 -18 -5 0 -10 8 -12 18 -1 9 4 17 13 17 8 0 13 -7 11 -17z
m1085 -9 c-3 -8 -9 -14 -13 -14 -13 0 -22 19 -15 30 9 14 34 0 28 -16z m237
-14 c4 -3 9 -15 13 -28 4 -18 2 -22 -12 -17 -11 3 -25 -3 -36 -15 -10 -11 -23
-20 -29 -20 -5 0 4 15 22 33 23 24 29 36 22 47 -5 8 -10 22 -10 30 1 10 4 9
12 -5 6 -11 14 -22 18 -25z m-2398 15 c0 -5 -5 -11 -11 -13 -6 -2 -11 4 -11
13 0 9 5 15 11 13 6 -2 11 -8 11 -13z m1908 -41 c0 -16 -16 -19 -25 -4 -8 13
4 32 16 25 5 -4 9 -13 9 -21z m-1650 1 c-7 -8 -16 -15 -21 -15 -5 0 -9 7 -9
15 0 9 9 15 21 15 18 0 19 -2 9 -15z m317 -51 c-3 -4 -14 -3 -24 0 -15 6 -15
8 -3 16 16 10 39 -4 27 -16z m1017 5 c-7 -11 -34 -12 -34 -1 0 14 11 21 26 15
8 -3 11 -9 8 -14z m866 -34 c0 -25 -18 -25 -22 -1 -4 17 -1 23 9 19 7 -3 13
-11 13 -18z m-2760 -6 c0 -11 -4 -17 -10 -14 -5 3 -10 13 -10 21 0 8 5 14 10
14 6 0 10 -9 10 -21z m193 -23 c6 -14 0 -26 -14 -26 -3 0 -9 9 -12 20 -6 23
18 28 26 6z m1512 -51 c6 0 19 -6 30 -12 16 -9 17 -13 6 -27 -17 -20 -35 -21
-28 -2 8 21 -18 39 -64 45 -5 1 -5 19 0 55 0 5 11 -6 24 -25 12 -19 27 -34 32
-34z m875 59 c0 -3 -5 -15 -11 -26 -8 -16 -13 -18 -19 -8 -11 17 -1 40 16 40
8 0 14 -3 14 -6z m-1195 -55 c4 -11 4 -23 1 -26 -3 -4 -6 -1 -6 6 0 7 -6 11
-14 8 -10 -4 -14 0 -13 14 2 25 24 24 32 -2z m-1369 -56 c-11 -11 -19 6 -11
24 8 17 8 17 12 0 3 -10 2 -21 -1 -24z m2582 12 c-3 -3 -9 2 -12 12 -6 14 -5
15 5 6 7 -7 10 -15 7 -18z m142 -1 c0 -8 -6 -14 -14 -14 -9 0 -12 7 -9 20 6
22 23 18 23 -6z m-327 -10 c-7 -18 -33 -18 -33 -1 0 19 10 27 25 20 8 -2 11
-11 8 -19z m-2055 4 c-6 -18 -28 -21 -28 -4 0 9 7 16 16 16 9 0 14 -5 12 -12z
m2274 -48 c24 0 3 -31 -34 -49 -24 -11 -55 -31 -70 -43 l-28 -23 21 -75 c11
-41 23 -82 25 -90 4 -10 -11 -28 -41 -49 -49 -35 -64 -62 -66 -114 l-1 -32
-11 27 c-11 27 -11 27 -39 -35 -34 -77 -35 -90 -5 -82 l22 6 -21 -18 c-34 -29
-46 -61 -42 -116 l3 -50 -72 -17 c-86 -21 -93 -25 -93 -53 0 -18 -2 -19 -10
-7 -8 13 -14 10 -36 -15 l-26 -30 23 34 c18 27 19 35 8 42 -11 7 -10 9 4 9 12
0 17 8 18 28 1 16 3 20 6 10 2 -10 8 -18 12 -18 9 0 124 134 129 150 2 6 -16
11 -40 12 l-43 1 40 4 c53 6 60 15 40 53 -9 17 -14 34 -12 36 2 3 10 -9 17
-26 7 -17 17 -29 22 -28 9 3 46 85 63 140 7 19 4 20 -21 14 l-29 -6 28 16 c21
11 26 20 22 35 -5 14 -3 17 9 13 12 -4 20 12 38 73 26 89 37 77 14 -15 -9 -33
-16 -62 -16 -66 0 -3 21 9 46 26 50 34 49 28 23 133 -7 28 -19 56 -26 63 -15
16 1 57 18 46 6 -3 35 10 64 30 51 33 54 38 45 62 -13 34 -12 45 2 17 6 -13
15 -23 20 -23z m-2507 -1 c-4 -5 1 -19 10 -29 16 -18 16 -18 -5 -13 -27 7 -38
32 -19 44 18 12 22 11 14 -2z m952 -41 c-6 -3 -16 -4 -24 -1 -15 6 -45 -15
-38 -27 3 -5 -4 -6 -14 -3 -25 6 -16 31 12 35 14 2 23 11 25 27 l4 24 22 -24
c14 -14 19 -27 13 -31z m647 7 c9 0 22 -7 27 -16 6 -13 4 -18 -11 -22 -11 -3
-18 -2 -15 3 7 12 -23 33 -38 27 -8 -3 -20 -1 -28 4 -10 6 -10 9 -1 9 6 0 12
6 12 14 0 23 25 25 30 2 3 -12 14 -21 24 -21z m-488 17 c-3 -2 -1 -13 4 -22 9
-16 7 -17 -14 -7 -25 12 -25 50 0 40 8 -3 13 -8 10 -11z m297 -2 c3 -12 0 -20
-8 -20 -7 0 -18 -7 -25 -15 -10 -12 -10 -15 2 -15 8 0 15 -7 15 -15 0 -8 -7
-14 -16 -13 -19 4 -28 -37 -12 -56 17 -20 -10 -39 -27 -20 -7 8 -8 14 -2 14 5
0 10 14 10 30 0 17 -5 30 -12 30 -16 0 -77 -40 -63 -40 6 0 3 -5 -6 -10 -17
-10 -67 -1 -50 9 6 4 -5 15 -25 26 -28 15 -37 16 -43 6 -6 -10 -10 -9 -14 3
-4 9 -12 13 -20 10 -28 -11 -12 22 18 37 31 14 32 14 27 -5 -4 -14 -2 -17 8
-11 8 5 11 4 6 -3 -10 -17 60 -55 86 -46 46 14 80 45 74 68 -5 19 -4 20 8 3
12 -15 15 -15 25 -3 7 8 14 23 16 33 2 10 4 19 4 21 3 10 20 -2 24 -18z m-889
-9 c3 -5 -1 -12 -10 -15 -22 -9 -24 -8 -24 9 0 16 25 21 34 6z m1489 -7 c-3
-8 -12 -13 -20 -10 -8 3 -17 6 -19 6 -3 0 -2 5 1 10 11 17 45 12 38 -6z m-519
-29 c-3 -7 0 -23 6 -35 8 -16 15 -19 24 -11 10 8 12 5 11 -17 -2 -29 -19 -32
-45 -6 -10 10 -11 14 -2 14 20 0 -5 39 -31 50 -22 8 -22 8 3 18 29 11 41 7 34
-13z m-1414 -11 c0 -2 -9 0 -20 6 -11 6 -20 13 -20 16 0 2 9 0 20 -6 11 -6 20
-13 20 -16z m975 16 c3 -5 0 -10 -8 -10 -8 0 -22 -9 -33 -21 -14 -16 -15 -22
-5 -28 10 -7 8 -12 -10 -25 -14 -10 -27 -12 -32 -7 -12 12 -1 45 11 37 11 -7
34 42 27 55 -4 5 5 9 19 9 14 0 28 -4 31 -10z m-933 -28 c3 9 9 6 16 -8 9 -18
8 -26 -10 -45 l-21 -24 6 25 c4 16 0 31 -11 44 -15 18 -15 19 0 8 13 -10 17
-10 20 0z m1051 -63 l22 0 -22 -11 c-13 -6 -23 -15 -23 -21 0 -5 -7 -4 -15 3
-11 9 -12 16 -2 31 7 11 13 15 15 9 2 -5 13 -10 25 -11z m-1068 -66 c-9 -37
-18 -20 -9 19 4 18 9 27 11 20 3 -7 2 -24 -2 -39z m104 -139 c3 2 11 -7 18
-20 6 -13 7 -24 2 -24 -5 0 -9 -5 -9 -10 0 -21 63 -159 70 -155 8 5 24 -24 21
-39 -1 -4 4 -14 10 -22 14 -17 -2 -19 -19 -2 -9 9 -12 7 -13 -13 -1 -21 -2
-20 -10 8 -5 18 -19 39 -31 48 l-22 15 21 0 c21 0 21 1 -9 76 -30 73 -41 81
-51 39 -3 -11 -5 0 -6 25 -1 35 -8 51 -33 79 l-33 34 33 -22 c37 -26 40 -19
17 55 -25 83 -15 84 12 2 14 -43 28 -76 32 -74z m2008 117 c3 -21 -24 -24 -32
-3 -3 9 0 19 7 23 15 9 21 5 25 -20z m-1904 13 c3 -3 3 -12 0 -19 -6 -17 -30
-9 -30 10 0 15 18 20 30 9z m1627 -36 c0 -12 -28 -9 -36 3 -3 6 0 15 7 20 13
7 28 -5 29 -23z m-1340 12 c0 -12 -28 -25 -36 -17 -9 9 6 27 22 27 8 0 14 -5
14 -10z m-496 -59 c9 -12 8 -12 -11 -2 -23 12 -29 31 -15 45 4 4 9 0 11 -11 2
-10 8 -24 15 -32z m1249 -57 c-4 -11 -9 -12 -19 -4 -7 7 -10 18 -7 26 4 11 9
12 19 4 7 -7 10 -18 7 -26z m-423 6 c0 -11 -4 -20 -9 -20 -14 0 -23 18 -16 30
10 17 25 11 25 -10z m244 12 c2 -4 0 -14 -5 -22 -8 -13 -10 -13 -18 0 -10 15
-6 30 9 30 5 0 11 -4 14 -8z m426 -2 c13 -9 13 -11 0 -19 -17 -12 -30 -5 -30
15 0 16 9 18 30 4z m-1217 -85 c1 -5 -6 -11 -15 -13 -11 -2 -18 3 -18 13 0 17
30 18 33 0z m1770 -5 c-4 -16 -9 -18 -24 -9 -23 12 -16 29 11 29 13 0 17 -5
13 -20z m-1453 -51 c0 -5 -9 -9 -20 -9 -19 0 -26 11 -14 23 8 8 34 -3 34 -14z
m1141 6 c0 -13 -41 -19 -41 -7 0 11 20 22 33 18 5 -1 8 -6 8 -11z m-596 -34
c76 0 146 4 156 10 12 6 20 5 24 -1 4 -7 38 -10 81 -9 89 2 112 -8 55 -26 -14
-4 -21 -3 -17 3 3 6 -46 9 -134 10 -77 0 -138 -3 -135 -7 2 -4 -9 -8 -25 -8
-16 0 -27 4 -24 9 3 4 -22 8 -56 8 -34 0 -59 -3 -56 -8 2 -4 -13 -7 -34 -7
-21 0 -36 3 -34 7 3 5 -13 8 -35 8 -23 0 -43 -6 -48 -14 -6 -10 -15 -11 -32
-4 -44 16 -8 31 68 29 42 -1 72 2 76 9 5 7 11 8 19 1 7 -6 72 -10 151 -10z
m1097 -33 c-15 -15 -24 -6 -16 16 5 12 10 14 17 7 8 -8 8 -14 -1 -23z m-2164
3 c3 -8 -1 -12 -9 -9 -7 2 -15 10 -17 17 -3 8 1 12 9 9 7 -2 15 -10 17 -17z
m1532 -36 c-11 -13 -14 -13 -26 2 -11 16 -10 19 9 24 26 6 34 -6 17 -26z
m1790 -411 l0 -434 -437 2 c-284 2 -438 7 -438 13 0 6 149 11 423 13 l422 2 0
343 c0 354 7 510 21 501 5 -3 9 -201 9 -440z m-2676 429 c-5 -5 -11 -12 -15
-16 -3 -4 -12 -1 -19 8 -11 13 -9 15 15 15 16 0 24 -3 19 -7z m371 -13 c-4 -6
17 -10 55 -10 46 0 59 3 54 13 -6 9 -5 9 8 0 8 -7 18 -10 21 -7 3 3 11 3 17
-1 8 -5 8 -10 0 -20 -11 -13 -34 -14 -46 -2 -9 9 -87 9 -108 1 -9 -3 -13 -11
-9 -18 4 -7 1 -7 -9 1 -8 7 -18 10 -21 6 -4 -3 -7 -1 -7 7 0 9 -21 11 -90 8
-49 -2 -90 -1 -90 3 0 4 -12 9 -27 12 -16 2 31 2 104 0 84 -2 134 0 138 7 3 5
8 10 11 10 3 0 2 -4 -1 -10z m370 -8 c-16 -2 -32 -7 -35 -12 -3 -4 -36 -4 -75
0 -66 7 -67 7 -20 9 28 1 58 6 68 10 10 4 35 5 55 2 36 -5 36 -5 7 -9z m-1065
-17 c0 -8 -6 -15 -14 -15 -17 0 -28 14 -19 24 12 12 33 6 33 -9z m1533 9 c3
-3 3 -12 0 -20 -4 -10 -10 -11 -24 -3 -11 5 -17 14 -14 20 7 10 28 12 38 3z
m-344 -90 c-6 -8 -15 -11 -20 -8 -12 7 -129 -74 -129 -89 0 -9 -33 -12 -122
-12 -86 -1 -123 -4 -126 -13 -2 -7 -22 -12 -49 -12 -25 0 -58 -7 -73 -17 -28
-16 -29 -16 -53 13 -23 26 -32 29 -84 29 -53 0 -61 3 -83 30 -14 17 -17 24 -7
16 9 -7 17 -10 17 -7 0 4 10 0 22 -8 27 -19 83 -22 72 -4 -5 8 -2 9 9 5 10 -4
17 -1 18 6 0 9 2 9 5 0 3 -7 12 -9 21 -6 10 4 14 2 10 -4 -13 -21 248 -26 263
-5 3 4 14 7 25 7 11 0 29 4 40 9 18 8 19 7 6 -7 -12 -15 -11 -17 11 -17 39 0
81 38 74 66 -5 17 -1 24 15 29 23 8 40 -2 23 -13 -11 -7 -34 -46 -34 -57 0 -3
20 8 45 25 25 17 43 35 40 40 -3 4 6 11 20 14 14 4 25 11 25 17 0 8 5 7 15 -1
12 -10 13 -16 4 -26z m-827 -6 c29 -28 30 -29 6 -15 -15 9 -34 17 -43 17 -8 0
-15 7 -15 15 0 23 16 18 52 -17z m94 -16 c2 -28 0 -28 -21 4 -16 25 -16 26 2
22 10 -2 18 -12 19 -26z m2742 -444 l-3 -473 -472 -3 c-416 -2 -473 0 -473 13
0 13 56 15 460 15 l460 0 0 460 c0 404 2 460 15 460 13 0 15 -57 13 -472z
m-2434 453 c7 -11 -22 -23 -35 -15 -5 3 -7 10 -4 15 8 12 32 12 39 0z m-956
-38 c14 -12 13 -13 -5 -13 -23 0 -33 16 -25 39 5 13 6 13 10 0 2 -7 11 -20 20
-26z m59 -19 c-3 -3 -12 -4 -19 -1 -8 3 -5 6 6 6 11 1 17 -2 13 -5z m93 -11
c0 -7 4 -13 10 -13 5 0 7 -7 4 -15 -4 -8 -10 -12 -15 -9 -5 3 -9 -1 -10 -8 0
-7 -5 -2 -11 12 -17 40 -17 46 3 46 11 0 19 -6 19 -13z m190 -40 c0 -14 -26
-18 -34 -4 -7 11 0 18 19 18 8 0 15 -6 15 -14z m1233 4 c-2 -4 -3 -11 -3 -17
0 -5 -7 -7 -15 -4 -21 8 -19 33 3 30 9 -2 16 -6 15 -9z m-510 -32 c-6 -18 -34
-16 -41 3 -2 7 6 12 22 12 19 0 24 -4 19 -15z m617 -39 c0 -2 -8 -10 -17 -17
-16 -13 -17 -12 -4 4 13 16 21 21 21 13z m-46 -61 c-15 -24 -15 -25 2 -25 15
-1 13 -4 -8 -16 -15 -8 -31 -26 -34 -39 -3 -14 -10 -25 -14 -25 -5 0 -6 9 -3
20 6 24 0 25 -35 4 -26 -16 -25 -15 3 9 25 22 28 28 15 37 -12 8 -11 10 8 10
12 0 22 5 22 11 0 5 4 8 9 5 4 -3 16 3 26 14 25 27 29 25 9 -5z m-1156 -2 c-4
-22 -22 -20 -26 1 -2 10 3 16 13 16 10 0 15 -7 13 -17z m960 5 c-6 -29 -38
-31 -38 -2 0 8 9 14 20 14 11 0 19 -6 18 -12z m-1288 -13 c10 -12 10 -15 -4
-15 -9 0 -16 7 -16 15 0 8 2 15 4 15 2 0 9 -7 16 -15z m1600 0 c0 -8 -7 -15
-16 -15 -14 0 -14 3 -4 15 7 8 14 15 16 15 2 0 4 -7 4 -15z m-1442 -15 c15 0
15 -2 2 -10 -8 -5 -10 -10 -5 -10 6 0 3 -4 -5 -10 -9 -5 -19 -5 -27 2 -15 12
-18 42 -3 33 6 -3 10 0 11 7 0 10 2 10 6 1 2 -7 12 -13 21 -13z m354 -85 c0
-5 -5 -11 -11 -13 -6 -2 -11 4 -11 13 0 9 5 15 11 13 6 -2 11 -8 11 -13z m584
4 c8 -14 -18 -31 -30 -19 -9 9 0 30 14 30 5 0 12 -5 16 -11z m-406 -53 c0 -8
-4 -17 -9 -21 -12 -7 -24 12 -16 25 9 15 25 12 25 -4z m215 -14 c0 -18 -20
-15 -23 4 -3 10 1 15 10 12 7 -3 13 -10 13 -16z m370 8 c-4 -6 8 -10 27 -11
27 0 29 -2 13 -8 -11 -5 -26 -6 -33 -3 -7 2 -22 -4 -32 -13 -13 -11 -20 -14
-20 -6 0 7 -4 10 -9 7 -5 -4 -7 3 -4 13 3 12 16 22 32 24 14 2 27 5 29 6 2 0
0 -3 -3 -9z m-1085 -22 c0 -13 -23 -5 -28 10 -2 7 2 10 12 6 9 -3 16 -11 16
-16z m164 6 c18 -17 21 -28 6 -19 -5 3 -10 1 -10 -6 0 -7 -8 -5 -20 6 -11 10
-20 22 -20 27 0 14 28 9 44 -8z m1058 -6 c-6 -6 -15 -8 -19 -4 -4 4 -1 11 7
16 19 12 27 3 12 -12z m-1119 5 c-7 -2 -19 -2 -25 0 -7 3 -2 5 12 5 14 0 19
-2 13 -5z m257 -78 c9 5 11 4 6 -3 -4 -7 -2 -12 4 -12 7 0 7 -4 -2 -13 -14
-15 -58 -10 -55 6 4 20 22 35 28 25 4 -6 12 -7 19 -3z m531 1 c12 6 12 5 1 -8
-10 -13 -10 -17 0 -21 7 -3 2 -6 -12 -6 -15 -1 -32 -7 -39 -13 -11 -11 -12
-10 -6 1 4 8 2 17 -6 22 -11 7 -11 9 -1 9 7 0 10 5 6 12 -4 6 -3 8 4 4 6 -3
14 -1 18 5 5 8 9 8 14 -1 5 -8 13 -9 21 -4z m-353 -38 c-2 -6 -14 -15 -26 -19
-20 -8 -21 -6 -12 11 11 21 44 28 38 8z m162 -8 c12 -23 7 -25 -21 -9 -11 5
-17 14 -14 20 10 15 23 11 35 -11z m-486 -21 c-6 -11 -24 -2 -24 11 0 5 7 7
15 4 8 -4 12 -10 9 -15z m800 6 c-7 -17 -20 -20 -28 -6 -4 5 0 12 6 14 23 9
28 7 22 -8z m-571 -65 c-6 -22 -33 -24 -41 -2 -2 7 2 10 11 6 8 -3 18 -1 22 5
10 17 14 13 8 -9z m166 -1 c7 12 15 20 18 18 5 -5 -24 -67 -32 -67 -5 0 -35
56 -35 66 0 3 8 -4 19 -17 l18 -23 12 23z m182 12 c8 11 9 10 7 -6 -4 -27 -34
-31 -41 -5 -5 18 -3 19 10 9 12 -10 16 -10 24 2z"/>
<path d="M2637 5301 c-35 -8 -73 -65 -60 -94 8 -17 14 -12 51 38 24 32 42 58
40 59 -2 1 -15 0 -31 -3z"/>
<path d="M4250 5695 c0 -6 119 -75 131 -75 5 0 2 14 -6 31 -9 17 -19 28 -22
25 -3 -3 -18 1 -34 9 -26 14 -69 20 -69 10z"/>
<path d="M4192 5671 c-10 -6 -10 -10 2 -20 16 -13 29 -2 18 16 -4 7 -13 8 -20
4z"/>
<path d="M4237 5673 c-19 -18 -3 -43 40 -68 40 -22 52 -24 72 -15 14 6 20 15
15 19 -21 20 -121 70 -127 64z"/>
<path d="M4220 5570 c0 -11 6 -20 13 -20 22 0 27 11 12 26 -19 19 -25 18 -25
-6z"/>
<path d="M4355 5570 c3 -5 10 -10 16 -10 5 0 9 5 9 10 0 6 -7 10 -16 10 -8 0
-12 -4 -9 -10z"/>
<path d="M4397 5573 c-14 -13 -6 -30 18 -41 36 -17 37 -16 20 18 -15 30 -26
36 -38 23z"/>
<path d="M4245 5531 c-5 -9 45 -51 60 -51 3 0 -2 14 -12 30 -17 30 -37 38 -48
21z"/>
<path d="M4560 5455 c0 -2 10 -10 23 -16 20 -11 21 -11 8 4 -13 16 -31 23 -31
12z"/>
<path d="M4645 5340 c3 -5 13 -10 21 -10 8 0 12 5 9 10 -3 6 -13 10 -21 10 -8
0 -12 -4 -9 -10z"/>
<path d="M4696 5291 c-4 -6 0 -23 9 -37 16 -25 16 -25 -4 -15 -28 16 -28 16
-57 -40 l-26 -52 66 7 c36 4 78 11 93 15 l28 7 -28 18 c-15 10 -27 27 -27 37
0 26 -45 76 -54 60z"/>
<path d="M4780 5250 c0 -8 9 -26 20 -40 13 -17 20 -20 20 -10 0 8 -9 26 -20
40 -13 17 -20 20 -20 10z"/>
<path d="M4855 5118 l16 -33 -22 28 c-29 38 -46 15 -20 -28 10 -16 24 -47 31
-67 10 -33 14 -37 30 -28 12 7 17 16 13 27 -4 11 -3 14 5 9 18 -11 14 20 -8
64 -11 22 -29 44 -41 50 -20 11 -20 11 -4 -22z m35 -58 c6 -11 8 -20 6 -20 -3
0 -10 9 -16 20 -6 11 -8 20 -6 20 3 0 10 -9 16 -20z"/>
<path d="M5071 4704 c0 -11 3 -14 6 -6 3 7 2 16 -1 19 -3 4 -6 -2 -5 -13z"/>
<path d="M5069 4224 c-6 -40 -4 -142 2 -138 5 2 6 11 2 20 -3 9 0 14 8 12 21
-5 25 85 4 102 -8 7 -16 9 -16 4z"/>
<path d="M5057 4004 c-3 -10 -8 -55 -12 -98 l-7 -80 41 48 c23 26 41 55 41 64
0 9 -13 32 -29 51 -25 31 -29 33 -34 15z"/>
<path d="M4471 4026 c26 -27 109 -49 109 -30 0 8 -35 23 -120 52 -8 2 -3 -7
11 -22z"/>
<path d="M4284 3908 c-15 -24 -35 -55 -46 -70 -19 -28 -19 -28 2 -28 15 0 20
5 17 14 -7 18 29 76 48 76 9 0 15 9 15 25 0 34 -6 32 -36 -17z"/>
<path d="M4332 3933 c2 -10 11 -19 21 -21 21 -4 13 24 -9 32 -11 4 -14 1 -12
-11z"/>
<path d="M3929 3824 c-18 -37 -14 -42 16 -20 15 11 17 18 10 34 -9 19 -11 18
-26 -14z"/>
<path d="M4336 3661 c-3 -5 1 -14 8 -20 11 -9 19 -9 35 1 12 7 21 16 21 20 0
11 -58 10 -64 -1z"/>
<path d="M3023 3915 c-28 -27 -31 -32 -11 -20 15 9 31 14 37 11 10 -7 27 32
18 41 -3 2 -23 -12 -44 -32z"/>
<path d="M3080 3926 c0 -16 3 -26 7 -23 3 4 12 2 20 -4 20 -17 16 5 -7 32
l-19 24 -1 -29z"/>
<path d="M2939 3844 c-12 -14 -11 -16 5 -13 11 2 21 10 24 17 5 17 -13 15 -29
-4z"/>
<path d="M3156 3827 c3 -10 9 -15 12 -12 3 3 0 11 -7 18 -10 9 -11 8 -5 -6z"/>
<path d="M3002 3658 c8 -23 35 -33 52 -19 9 7 13 17 10 22 -8 14 -66 11 -62
-3z"/>
<path d="M3444 3856 c-5 -32 -3 -42 11 -53 11 -7 28 -13 38 -13 19 0 19 1 4
18 -9 10 -23 33 -31 52 l-14 35 -8 -39z"/>
<path d="M4591 2194 c-34 -37 -61 -70 -61 -75 0 -4 15 -3 33 2 17 6 47 15 65
20 31 10 32 12 32 64 0 30 -2 55 -4 55 -2 0 -32 -30 -65 -66z"/>
<path d="M3570 2075 c13 -16 65 -21 74 -6 5 8 -38 21 -71 21 -13 0 -13 -3 -3
-15z"/>
</g>
</svg>
